<mxfile host="65bd71144e">
    <diagram id="8F1_7XKbLMlN1_S1CSGr" name="Page-1">
        <mxGraphModel dx="1233" dy="1025" grid="0" gridSize="10" guides="1" tooltips="1" connect="1" arrows="1" fold="1" page="0" pageScale="1" pageWidth="827" pageHeight="1169" background="#ffffff" math="0" shadow="0">
            <root>
                <mxCell id="0"/>
                <mxCell id="1" parent="0"/>
                <mxCell id="284" value="" style="rounded=1;dashed=1;whiteSpace=wrap;html=1;fillColor=#00000000;" vertex="1" parent="1">
                    <mxGeometry y="800" width="830" height="230" as="geometry"/>
                </mxCell>
                <mxCell id="2" value="Interpreter" style="swimlane;fontStyle=1;align=center;verticalAlign=top;childLayout=stackLayout;horizontal=1;startSize=26;horizontalStack=0;resizeParent=1;resizeParentMax=0;resizeLast=0;collapsible=1;marginBottom=0;" parent="1" vertex="1">
                    <mxGeometry x="50" y="58" width="160" height="112" as="geometry"/>
                </mxCell>
                <mxCell id="291" value="- __instance" style="text;strokeColor=none;fillColor=none;align=left;verticalAlign=top;spacingLeft=4;spacingRight=4;overflow=hidden;rotatable=0;points=[[0,0.5],[1,0.5]];portConstraint=eastwest;fontStyle=4" vertex="1" parent="2">
                    <mxGeometry y="26" width="160" height="26" as="geometry"/>
                </mxCell>
                <mxCell id="4" value="" style="line;strokeWidth=1;fillColor=none;align=left;verticalAlign=middle;spacingTop=-1;spacingLeft=3;spacingRight=3;rotatable=0;labelPosition=right;points=[];portConstraint=eastwest;strokeColor=inherit;" parent="2" vertex="1">
                    <mxGeometry y="52" width="160" height="8" as="geometry"/>
                </mxCell>
                <mxCell id="290" value="+ getInstance()" style="text;strokeColor=none;fillColor=none;align=left;verticalAlign=top;spacingLeft=4;spacingRight=4;overflow=hidden;rotatable=0;points=[[0,0.5],[1,0.5]];portConstraint=eastwest;fontStyle=4" vertex="1" parent="2">
                    <mxGeometry y="60" width="160" height="26" as="geometry"/>
                </mxCell>
                <mxCell id="5" value="+ interpret()" style="text;strokeColor=none;fillColor=none;align=left;verticalAlign=top;spacingLeft=4;spacingRight=4;overflow=hidden;rotatable=0;points=[[0,0.5],[1,0.5]];portConstraint=eastwest;fontStyle=0" parent="2" vertex="1">
                    <mxGeometry y="86" width="160" height="26" as="geometry"/>
                </mxCell>
                <mxCell id="9" value="ArgParser" style="swimlane;fontStyle=1;align=center;verticalAlign=top;childLayout=stackLayout;horizontal=1;startSize=26;horizontalStack=0;resizeParent=1;resizeParentMax=0;resizeLast=0;collapsible=1;marginBottom=0;" parent="1" vertex="1">
                    <mxGeometry x="590" y="57" width="160" height="126" as="geometry"/>
                </mxCell>
                <mxCell id="242" value="- __instance" style="text;strokeColor=none;fillColor=none;align=left;verticalAlign=top;spacingLeft=4;spacingRight=4;overflow=hidden;rotatable=0;points=[[0,0.5],[1,0.5]];portConstraint=eastwest;fontStyle=4" vertex="1" parent="9">
                    <mxGeometry y="26" width="160" height="24" as="geometry"/>
                </mxCell>
                <mxCell id="10" value="+ source&#10;+ input" style="text;strokeColor=none;fillColor=none;align=left;verticalAlign=top;spacingLeft=4;spacingRight=4;overflow=hidden;rotatable=0;points=[[0,0.5],[1,0.5]];portConstraint=eastwest;" parent="9" vertex="1">
                    <mxGeometry y="50" width="160" height="34" as="geometry"/>
                </mxCell>
                <mxCell id="11" value="" style="line;strokeWidth=1;fillColor=none;align=left;verticalAlign=middle;spacingTop=-1;spacingLeft=3;spacingRight=3;rotatable=0;labelPosition=right;points=[];portConstraint=eastwest;strokeColor=inherit;" parent="9" vertex="1">
                    <mxGeometry y="84" width="160" height="8" as="geometry"/>
                </mxCell>
                <mxCell id="241" value="+ getInstance()" style="text;strokeColor=none;fillColor=none;align=left;verticalAlign=top;spacingLeft=4;spacingRight=4;overflow=hidden;rotatable=0;points=[[0,0.5],[1,0.5]];portConstraint=eastwest;fontStyle=4" vertex="1" parent="9">
                    <mxGeometry y="92" width="160" height="22" as="geometry"/>
                </mxCell>
                <mxCell id="12" value=" " style="text;strokeColor=none;fillColor=none;align=left;verticalAlign=top;spacingLeft=4;spacingRight=4;overflow=hidden;rotatable=0;points=[[0,0.5],[1,0.5]];portConstraint=eastwest;fontStyle=0" parent="9" vertex="1">
                    <mxGeometry y="114" width="160" height="12" as="geometry"/>
                </mxCell>
                <mxCell id="201" style="edgeStyle=orthogonalEdgeStyle;html=1;entryX=0.562;entryY=1.022;entryDx=0;entryDy=0;entryPerimeter=0;" parent="1" source="13" target="5" edge="1">
                    <mxGeometry relative="1" as="geometry">
                        <Array as="points">
                            <mxPoint x="490" y="290"/>
                            <mxPoint x="140" y="290"/>
                        </Array>
                    </mxGeometry>
                </mxCell>
                <mxCell id="13" value="StackManager" style="swimlane;fontStyle=1;align=center;verticalAlign=top;childLayout=stackLayout;horizontal=1;startSize=26;horizontalStack=0;resizeParent=1;resizeParentMax=0;resizeLast=0;collapsible=1;marginBottom=0;" parent="1" vertex="1">
                    <mxGeometry x="410" y="360" width="160" height="146" as="geometry"/>
                </mxCell>
                <mxCell id="14" value="- __instance" style="text;strokeColor=none;fillColor=none;align=left;verticalAlign=top;spacingLeft=4;spacingRight=4;overflow=hidden;rotatable=0;points=[[0,0.5],[1,0.5]];portConstraint=eastwest;fontStyle=4" parent="13" vertex="1">
                    <mxGeometry y="26" width="160" height="24" as="geometry"/>
                </mxCell>
                <mxCell id="292" value="- __stack" style="text;strokeColor=none;fillColor=none;align=left;verticalAlign=top;spacingLeft=4;spacingRight=4;overflow=hidden;rotatable=0;points=[[0,0.5],[1,0.5]];portConstraint=eastwest;fontStyle=0" vertex="1" parent="13">
                    <mxGeometry y="50" width="160" height="24" as="geometry"/>
                </mxCell>
                <mxCell id="15" value="" style="line;strokeWidth=1;fillColor=none;align=left;verticalAlign=middle;spacingTop=-1;spacingLeft=3;spacingRight=3;rotatable=0;labelPosition=right;points=[];portConstraint=eastwest;strokeColor=inherit;" parent="13" vertex="1">
                    <mxGeometry y="74" width="160" height="8" as="geometry"/>
                </mxCell>
                <mxCell id="229" value="+ getInstance()" style="text;strokeColor=none;fillColor=none;align=left;verticalAlign=top;spacingLeft=4;spacingRight=4;overflow=hidden;rotatable=0;points=[[0,0.5],[1,0.5]];portConstraint=eastwest;fontStyle=4" vertex="1" parent="13">
                    <mxGeometry y="82" width="160" height="22" as="geometry"/>
                </mxCell>
                <mxCell id="16" value="+ push(symb)&#10;+ pop()" style="text;strokeColor=none;fillColor=none;align=left;verticalAlign=top;spacingLeft=4;spacingRight=4;overflow=hidden;rotatable=0;points=[[0,0.5],[1,0.5]];portConstraint=eastwest;fontStyle=0" parent="13" vertex="1">
                    <mxGeometry y="104" width="160" height="42" as="geometry"/>
                </mxCell>
                <mxCell id="202" style="edgeStyle=orthogonalEdgeStyle;html=1;exitX=0.5;exitY=0;exitDx=0;exitDy=0;entryX=0.374;entryY=1.081;entryDx=0;entryDy=0;entryPerimeter=0;" parent="1" source="17" target="5" edge="1">
                    <mxGeometry relative="1" as="geometry">
                        <Array as="points">
                            <mxPoint x="310" y="320"/>
                            <mxPoint x="110" y="320"/>
                        </Array>
                    </mxGeometry>
                </mxCell>
                <mxCell id="17" value="FlowManager" style="swimlane;fontStyle=1;align=center;verticalAlign=top;childLayout=stackLayout;horizontal=1;startSize=26;horizontalStack=0;resizeParent=1;resizeParentMax=0;resizeLast=0;collapsible=1;marginBottom=0;" parent="1" vertex="1">
                    <mxGeometry x="230" y="310" width="160" height="220" as="geometry"/>
                </mxCell>
                <mxCell id="244" value="- __instance" style="text;strokeColor=none;fillColor=none;align=left;verticalAlign=top;spacingLeft=4;spacingRight=4;overflow=hidden;rotatable=0;points=[[0,0.5],[1,0.5]];portConstraint=eastwest;fontStyle=4" vertex="1" parent="17">
                    <mxGeometry y="26" width="160" height="24" as="geometry"/>
                </mxCell>
                <mxCell id="18" value="+ ip&#10;# _labels&#10;# _callstack&#10;# _orderMapping" style="text;strokeColor=none;fillColor=none;align=left;verticalAlign=top;spacingLeft=4;spacingRight=4;overflow=hidden;rotatable=0;points=[[0,0.5],[1,0.5]];portConstraint=eastwest;fontStyle=0" parent="17" vertex="1">
                    <mxGeometry y="50" width="160" height="70" as="geometry"/>
                </mxCell>
                <mxCell id="19" value="" style="line;strokeWidth=1;fillColor=none;align=left;verticalAlign=middle;spacingTop=-1;spacingLeft=3;spacingRight=3;rotatable=0;labelPosition=right;points=[];portConstraint=eastwest;strokeColor=inherit;" parent="17" vertex="1">
                    <mxGeometry y="120" width="160" height="8" as="geometry"/>
                </mxCell>
                <mxCell id="243" value="+ getInstance()" style="text;strokeColor=none;fillColor=none;align=left;verticalAlign=top;spacingLeft=4;spacingRight=4;overflow=hidden;rotatable=0;points=[[0,0.5],[1,0.5]];portConstraint=eastwest;fontStyle=4" vertex="1" parent="17">
                    <mxGeometry y="128" width="160" height="22" as="geometry"/>
                </mxCell>
                <mxCell id="20" value="+ getNextIns()&#10;+ jump(label)&#10;+ call(label)&#10;+ ret()" style="text;strokeColor=none;fillColor=none;align=left;verticalAlign=top;spacingLeft=4;spacingRight=4;overflow=hidden;rotatable=0;points=[[0,0.5],[1,0.5]];portConstraint=eastwest;fontStyle=0" parent="17" vertex="1">
                    <mxGeometry y="150" width="160" height="70" as="geometry"/>
                </mxCell>
                <mxCell id="200" style="edgeStyle=orthogonalEdgeStyle;html=1;entryX=0.73;entryY=1.1;entryDx=0;entryDy=0;entryPerimeter=0;" parent="1" source="21" target="5" edge="1">
                    <mxGeometry relative="1" as="geometry">
                        <Array as="points">
                            <mxPoint x="167" y="260"/>
                        </Array>
                        <mxPoint x="211.5999999999999" y="185.67600000000004" as="targetPoint"/>
                    </mxGeometry>
                </mxCell>
                <mxCell id="21" value="FrameManager" style="swimlane;fontStyle=1;align=center;verticalAlign=top;childLayout=stackLayout;horizontal=1;startSize=26;horizontalStack=0;resizeParent=1;resizeParentMax=0;resizeLast=0;collapsible=1;marginBottom=0;" parent="1" vertex="1">
                    <mxGeometry x="590" y="200" width="160" height="242" as="geometry"/>
                </mxCell>
                <mxCell id="245" value="- __instance" style="text;strokeColor=none;fillColor=none;align=left;verticalAlign=top;spacingLeft=4;spacingRight=4;overflow=hidden;rotatable=0;points=[[0,0.5],[1,0.5]];portConstraint=eastwest;fontStyle=4" vertex="1" parent="21">
                    <mxGeometry y="26" width="160" height="24" as="geometry"/>
                </mxCell>
                <mxCell id="22" value="+ GF&#10;+ TF&#10;+ LF" style="text;strokeColor=none;fillColor=none;align=left;verticalAlign=top;spacingLeft=4;spacingRight=4;overflow=hidden;rotatable=0;points=[[0,0.5],[1,0.5]];portConstraint=eastwest;fontStyle=0" parent="21" vertex="1">
                    <mxGeometry y="50" width="160" height="54" as="geometry"/>
                </mxCell>
                <mxCell id="23" value="" style="line;strokeWidth=1;fillColor=none;align=left;verticalAlign=middle;spacingTop=-1;spacingLeft=3;spacingRight=3;rotatable=0;labelPosition=right;points=[];portConstraint=eastwest;strokeColor=inherit;" parent="21" vertex="1">
                    <mxGeometry y="104" width="160" height="8" as="geometry"/>
                </mxCell>
                <mxCell id="246" value="+ getInstance()" style="text;strokeColor=none;fillColor=none;align=left;verticalAlign=top;spacingLeft=4;spacingRight=4;overflow=hidden;rotatable=0;points=[[0,0.5],[1,0.5]];portConstraint=eastwest;fontStyle=4" vertex="1" parent="21">
                    <mxGeometry y="112" width="160" height="28" as="geometry"/>
                </mxCell>
                <mxCell id="24" value="+ pushframe()&#10;+ popframe()&#10;+ createframe()&#10;+ getVal(var)&#10;+ getFrame(var)&#10;+ currentLF()" style="text;strokeColor=none;fillColor=none;align=left;verticalAlign=top;spacingLeft=4;spacingRight=4;overflow=hidden;rotatable=0;points=[[0,0.5],[1,0.5]];portConstraint=eastwest;fontStyle=0" parent="21" vertex="1">
                    <mxGeometry y="140" width="160" height="102" as="geometry"/>
                </mxCell>
                <mxCell id="203" style="edgeStyle=orthogonalEdgeStyle;html=1;entryX=0.223;entryY=0.98;entryDx=0;entryDy=0;entryPerimeter=0;" parent="1" source="25" target="5" edge="1">
                    <mxGeometry relative="1" as="geometry">
                        <mxPoint x="80" y="270" as="targetPoint"/>
                        <Array as="points">
                            <mxPoint x="86" y="250"/>
                            <mxPoint x="86" y="250"/>
                        </Array>
                    </mxGeometry>
                </mxCell>
                <mxCell id="25" value="IOManager" style="swimlane;fontStyle=1;align=center;verticalAlign=top;childLayout=stackLayout;horizontal=1;startSize=26;horizontalStack=0;resizeParent=1;resizeParentMax=0;resizeLast=0;collapsible=1;marginBottom=0;" parent="1" vertex="1">
                    <mxGeometry x="50" y="360" width="160" height="142" as="geometry"/>
                </mxCell>
                <mxCell id="26" value="- __instance" style="text;strokeColor=none;fillColor=none;align=left;verticalAlign=top;spacingLeft=4;spacingRight=4;overflow=hidden;rotatable=0;points=[[0,0.5],[1,0.5]];portConstraint=eastwest;fontStyle=4" parent="25" vertex="1">
                    <mxGeometry y="26" width="160" height="24" as="geometry"/>
                </mxCell>
                <mxCell id="27" value="" style="line;strokeWidth=1;fillColor=none;align=left;verticalAlign=middle;spacingTop=-1;spacingLeft=3;spacingRight=3;rotatable=0;labelPosition=right;points=[];portConstraint=eastwest;strokeColor=inherit;" parent="25" vertex="1">
                    <mxGeometry y="50" width="160" height="8" as="geometry"/>
                </mxCell>
                <mxCell id="28" value="+ getInstance()" style="text;strokeColor=none;fillColor=none;align=left;verticalAlign=top;spacingLeft=4;spacingRight=4;overflow=hidden;rotatable=0;points=[[0,0.5],[1,0.5]];portConstraint=eastwest;fontStyle=4" parent="25" vertex="1">
                    <mxGeometry y="58" width="160" height="22" as="geometry"/>
                </mxCell>
                <mxCell id="228" value="+ readOne()&#10;+ read()&#10;+ write(message, isError)" style="text;strokeColor=none;fillColor=none;align=left;verticalAlign=top;spacingLeft=4;spacingRight=4;overflow=hidden;rotatable=0;points=[[0,0.5],[1,0.5]];portConstraint=eastwest;fontStyle=0" vertex="1" parent="25">
                    <mxGeometry y="80" width="160" height="62" as="geometry"/>
                </mxCell>
                <mxCell id="29" value="InstructionFactory" style="swimlane;fontStyle=1;align=center;verticalAlign=top;childLayout=stackLayout;horizontal=1;startSize=26;horizontalStack=0;resizeParent=1;resizeParentMax=0;resizeLast=0;collapsible=1;marginBottom=0;" parent="1" vertex="1">
                    <mxGeometry x="80" y="556" width="160" height="112" as="geometry"/>
                </mxCell>
                <mxCell id="30" value="- __instance" style="text;strokeColor=none;fillColor=none;align=left;verticalAlign=top;spacingLeft=4;spacingRight=4;overflow=hidden;rotatable=0;points=[[0,0.5],[1,0.5]];portConstraint=eastwest;fontStyle=4" parent="29" vertex="1">
                    <mxGeometry y="26" width="160" height="24" as="geometry"/>
                </mxCell>
                <mxCell id="31" value="" style="line;strokeWidth=1;fillColor=none;align=left;verticalAlign=middle;spacingTop=-1;spacingLeft=3;spacingRight=3;rotatable=0;labelPosition=right;points=[];portConstraint=eastwest;strokeColor=inherit;" parent="29" vertex="1">
                    <mxGeometry y="50" width="160" height="8" as="geometry"/>
                </mxCell>
                <mxCell id="247" value="+ getInstance()" style="text;strokeColor=none;fillColor=none;align=left;verticalAlign=top;spacingLeft=4;spacingRight=4;overflow=hidden;rotatable=0;points=[[0,0.5],[1,0.5]];portConstraint=eastwest;fontStyle=4" vertex="1" parent="29">
                    <mxGeometry y="58" width="160" height="22" as="geometry"/>
                </mxCell>
                <mxCell id="32" value="+ gen(ins)" style="text;strokeColor=none;fillColor=none;align=left;verticalAlign=top;spacingLeft=4;spacingRight=4;overflow=hidden;rotatable=0;points=[[0,0.5],[1,0.5]];portConstraint=eastwest;fontStyle=0" parent="29" vertex="1">
                    <mxGeometry y="80" width="160" height="32" as="geometry"/>
                </mxCell>
                <mxCell id="33" value="Frame" style="swimlane;fontStyle=1;align=center;verticalAlign=top;childLayout=stackLayout;horizontal=1;startSize=26;horizontalStack=0;resizeParent=1;resizeParentMax=0;resizeLast=0;collapsible=1;marginBottom=0;" parent="1" vertex="1">
                    <mxGeometry x="590" y="520" width="160" height="120" as="geometry"/>
                </mxCell>
                <mxCell id="34" value="+ vars" style="text;strokeColor=none;fillColor=none;align=left;verticalAlign=top;spacingLeft=4;spacingRight=4;overflow=hidden;rotatable=0;points=[[0,0.5],[1,0.5]];portConstraint=eastwest;fontStyle=0" parent="33" vertex="1">
                    <mxGeometry y="26" width="160" height="24" as="geometry"/>
                </mxCell>
                <mxCell id="35" value="" style="line;strokeWidth=1;fillColor=none;align=left;verticalAlign=middle;spacingTop=-1;spacingLeft=3;spacingRight=3;rotatable=0;labelPosition=right;points=[];portConstraint=eastwest;strokeColor=inherit;" parent="33" vertex="1">
                    <mxGeometry y="50" width="160" height="8" as="geometry"/>
                </mxCell>
                <mxCell id="36" value="+ defvar(name)&#10;+ save(name, value)&#10;+ getVal(name)" style="text;strokeColor=none;fillColor=none;align=left;verticalAlign=top;spacingLeft=4;spacingRight=4;overflow=hidden;rotatable=0;points=[[0,0.5],[1,0.5]];portConstraint=eastwest;fontStyle=0" parent="33" vertex="1">
                    <mxGeometry y="58" width="160" height="62" as="geometry"/>
                </mxCell>
                <mxCell id="37" value="&lt;&lt;abstract&gt;&gt;&#10;Instruction" style="swimlane;fontStyle=1;align=center;verticalAlign=top;childLayout=stackLayout;horizontal=1;startSize=40;horizontalStack=0;resizeParent=1;resizeParentMax=0;resizeLast=0;collapsible=1;marginBottom=0;" parent="1" vertex="1">
                    <mxGeometry x="350" y="556" width="190" height="202" as="geometry"/>
                </mxCell>
                <mxCell id="38" value="+ opcode&#10;+ args" style="text;strokeColor=none;fillColor=none;align=left;verticalAlign=top;spacingLeft=4;spacingRight=4;overflow=hidden;rotatable=0;points=[[0,0.5],[1,0.5]];portConstraint=eastwest;fontStyle=0" parent="37" vertex="1">
                    <mxGeometry y="40" width="190" height="34" as="geometry"/>
                </mxCell>
                <mxCell id="39" value="" style="line;strokeWidth=1;fillColor=none;align=left;verticalAlign=middle;spacingTop=-1;spacingLeft=3;spacingRight=3;rotatable=0;labelPosition=right;points=[];portConstraint=eastwest;strokeColor=inherit;" parent="37" vertex="1">
                    <mxGeometry y="74" width="190" height="8" as="geometry"/>
                </mxCell>
                <mxCell id="40" value="# _checkSymb(symb)&#10;# _checkArgsTypes(type_lists)&#10;# _cast(arg)&#10;# _getAndCheckOps(options,&#10;     param_count, instance_class,&#10;     check_class)" style="text;strokeColor=none;fillColor=none;align=left;verticalAlign=top;spacingLeft=4;spacingRight=4;overflow=hidden;rotatable=0;points=[[0,0.5],[1,0.5]];portConstraint=eastwest;fontStyle=0" parent="37" vertex="1">
                    <mxGeometry y="82" width="190" height="90" as="geometry"/>
                </mxCell>
                <mxCell id="248" value="+ execute()" style="text;whiteSpace=wrap;html=1;fontStyle=2;fillColor=none;strokeColor=none;" vertex="1" parent="37">
                    <mxGeometry y="172" width="190" height="30" as="geometry"/>
                </mxCell>
                <mxCell id="141" value="Break" style="swimlane;fontStyle=1;align=center;verticalAlign=top;childLayout=stackLayout;horizontal=1;startSize=26;horizontalStack=0;resizeParent=1;resizeParentMax=0;resizeLast=0;collapsible=1;marginBottom=0;" parent="1" vertex="1">
                    <mxGeometry x="20" y="940" width="190" height="70" as="geometry"/>
                </mxCell>
                <mxCell id="142" value="" style="line;strokeWidth=1;fillColor=none;align=left;verticalAlign=middle;spacingTop=-1;spacingLeft=3;spacingRight=3;rotatable=0;labelPosition=right;points=[];portConstraint=eastwest;strokeColor=inherit;" parent="141" vertex="1">
                    <mxGeometry y="26" width="190" height="8" as="geometry"/>
                </mxCell>
                <mxCell id="143" value="- __printFrames()&#10;- __printFrame(frame, name)" style="text;strokeColor=none;fillColor=none;align=left;verticalAlign=top;spacingLeft=4;spacingRight=4;overflow=hidden;rotatable=0;points=[[0,0.5],[1,0.5]];portConstraint=eastwest;fontStyle=0" parent="141" vertex="1">
                    <mxGeometry y="34" width="190" height="36" as="geometry"/>
                </mxCell>
                <mxCell id="287" style="edgeStyle=orthogonalEdgeStyle;html=1;exitX=0;exitY=0.5;exitDx=0;exitDy=0;entryX=0.534;entryY=-0.002;entryDx=0;entryDy=0;entryPerimeter=0;endArrow=none" edge="1" parent="1" source="145" target="284">
                    <mxGeometry relative="1" as="geometry"/>
                </mxCell>
                <mxCell id="145" value="" style="triangle;whiteSpace=wrap;html=1;rotation=-90;" parent="1" vertex="1">
                    <mxGeometry x="433" y="755" width="20" height="26.67" as="geometry"/>
                </mxCell>
                <mxCell id="199" style="edgeStyle=orthogonalEdgeStyle;html=1;entryX=0.889;entryY=1.083;entryDx=0;entryDy=0;entryPerimeter=0;exitX=-0.001;exitY=0.194;exitDx=0;exitDy=0;exitPerimeter=0;" parent="1" source="10" target="5" edge="1">
                    <mxGeometry relative="1" as="geometry">
                        <mxPoint x="210" y="143" as="targetPoint"/>
                        <Array as="points">
                            <mxPoint x="560" y="116"/>
                            <mxPoint x="560" y="220"/>
                            <mxPoint x="192" y="220"/>
                        </Array>
                    </mxGeometry>
                </mxCell>
                <mxCell id="206" value="" style="rhombus;whiteSpace=wrap;html=1;fillColor=#0A0A0A;rotation=90;" parent="1" vertex="1">
                    <mxGeometry x="153" y="178" width="27" height="13.5" as="geometry"/>
                </mxCell>
                <mxCell id="209" value="" style="rhombus;whiteSpace=wrap;html=1;fillColor=#0A0A0A;rotation=90;" parent="1" vertex="1">
                    <mxGeometry x="72" y="177.5" width="27" height="13.5" as="geometry"/>
                </mxCell>
                <mxCell id="211" value="" style="rhombus;whiteSpace=wrap;html=1;fillColor=#0A0A0A;rotation=90;" parent="1" vertex="1">
                    <mxGeometry x="96" y="177" width="27" height="13.5" as="geometry"/>
                </mxCell>
                <mxCell id="212" style="edgeStyle=orthogonalEdgeStyle;html=1;entryX=0.5;entryY=0;entryDx=0;entryDy=0;" parent="1" source="24" target="33" edge="1">
                    <mxGeometry relative="1" as="geometry">
                        <Array as="points">
                            <mxPoint x="670" y="420"/>
                            <mxPoint x="670" y="420"/>
                        </Array>
                    </mxGeometry>
                </mxCell>
                <mxCell id="213" value="create" style="edgeLabel;html=1;align=center;verticalAlign=middle;resizable=0;points=[];" parent="212" vertex="1" connectable="0">
                    <mxGeometry x="-0.2625" y="-1" relative="1" as="geometry">
                        <mxPoint x="1" y="4" as="offset"/>
                    </mxGeometry>
                </mxCell>
                <mxCell id="225" style="edgeStyle=orthogonalEdgeStyle;html=1;entryX=0.06;entryY=1.054;entryDx=0;entryDy=0;entryPerimeter=0;" parent="1" source="30" target="5" edge="1">
                    <mxGeometry relative="1" as="geometry">
                        <Array as="points">
                            <mxPoint x="30" y="583"/>
                            <mxPoint x="30" y="320"/>
                            <mxPoint x="60" y="320"/>
                            <mxPoint x="60" y="210"/>
                            <mxPoint x="60" y="210"/>
                        </Array>
                    </mxGeometry>
                </mxCell>
                <mxCell id="224" value="" style="rhombus;whiteSpace=wrap;html=1;fillColor=#0A0A0A;rotation=90;" parent="1" vertex="1">
                    <mxGeometry x="47" y="178" width="27" height="13.5" as="geometry"/>
                </mxCell>
                <mxCell id="227" value="" style="rhombus;whiteSpace=wrap;html=1;fillColor=#0A0A0A;rotation=90;" vertex="1" parent="1">
                    <mxGeometry x="126" y="177.5" width="27" height="13.5" as="geometry"/>
                </mxCell>
                <mxCell id="230" value="XMLManager" style="swimlane;fontStyle=1;align=center;verticalAlign=top;childLayout=stackLayout;horizontal=1;startSize=26;horizontalStack=0;resizeParent=1;resizeParentMax=0;resizeLast=0;collapsible=1;marginBottom=0;" vertex="1" parent="1">
                    <mxGeometry x="360" y="54" width="160" height="142" as="geometry"/>
                </mxCell>
                <mxCell id="231" value="- __instance" style="text;strokeColor=none;fillColor=none;align=left;verticalAlign=top;spacingLeft=4;spacingRight=4;overflow=hidden;rotatable=0;points=[[0,0.5],[1,0.5]];portConstraint=eastwest;fontStyle=4" vertex="1" parent="230">
                    <mxGeometry y="26" width="160" height="24" as="geometry"/>
                </mxCell>
                <mxCell id="232" value="" style="line;strokeWidth=1;fillColor=none;align=left;verticalAlign=middle;spacingTop=-1;spacingLeft=3;spacingRight=3;rotatable=0;labelPosition=right;points=[];portConstraint=eastwest;strokeColor=inherit;" vertex="1" parent="230">
                    <mxGeometry y="50" width="160" height="8" as="geometry"/>
                </mxCell>
                <mxCell id="233" value="+ getInstance()" style="text;strokeColor=none;fillColor=none;align=left;verticalAlign=top;spacingLeft=4;spacingRight=4;overflow=hidden;rotatable=0;points=[[0,0.5],[1,0.5]];portConstraint=eastwest;fontStyle=4" vertex="1" parent="230">
                    <mxGeometry y="58" width="160" height="22" as="geometry"/>
                </mxCell>
                <mxCell id="234" value="- __getXMLRoot()&#10;- __checkXML()&#10;+ getIns(index)" style="text;strokeColor=none;fillColor=none;align=left;verticalAlign=top;spacingLeft=4;spacingRight=4;overflow=hidden;rotatable=0;points=[[0,0.5],[1,0.5]];portConstraint=eastwest;fontStyle=0" vertex="1" parent="230">
                    <mxGeometry y="80" width="160" height="62" as="geometry"/>
                </mxCell>
                <mxCell id="236" value="" style="rhombus;whiteSpace=wrap;html=1;fillColor=#0A0A0A;rotation=90;" vertex="1" parent="1">
                    <mxGeometry x="179" y="178" width="27" height="13.5" as="geometry"/>
                </mxCell>
                <mxCell id="239" style="edgeStyle=orthogonalEdgeStyle;html=1;entryX=1;entryY=0.5;entryDx=0;entryDy=0;" edge="1" parent="1" source="231" target="5">
                    <mxGeometry relative="1" as="geometry"/>
                </mxCell>
                <mxCell id="204" value="" style="rhombus;whiteSpace=wrap;html=1;fillColor=#0A0A0A;" parent="1" vertex="1">
                    <mxGeometry x="210" y="150" width="27" height="13.5" as="geometry"/>
                </mxCell>
                <mxCell id="249" value="Move" style="rounded=0;whiteSpace=wrap;html=1;fontStyle=1" vertex="1" parent="1">
                    <mxGeometry x="20" y="820" width="90" height="28.33" as="geometry"/>
                </mxCell>
                <mxCell id="250" value="Defvar" style="rounded=0;whiteSpace=wrap;html=1;fontStyle=1" vertex="1" parent="1">
                    <mxGeometry x="420" y="820" width="90" height="28.33" as="geometry"/>
                </mxCell>
                <mxCell id="251" value="Pops" style="rounded=0;whiteSpace=wrap;html=1;fontStyle=1" vertex="1" parent="1">
                    <mxGeometry x="20" y="861" width="90" height="28.33" as="geometry"/>
                </mxCell>
                <mxCell id="252" value="Idiv" style="rounded=0;whiteSpace=wrap;html=1;fontStyle=1" vertex="1" parent="1">
                    <mxGeometry x="420" y="860" width="90" height="28.33" as="geometry"/>
                </mxCell>
                <mxCell id="253" value="And" style="rounded=0;whiteSpace=wrap;html=1;fontStyle=1" vertex="1" parent="1">
                    <mxGeometry x="20" y="900" width="90" height="28.33" as="geometry"/>
                </mxCell>
                <mxCell id="254" value="Stri2int" style="rounded=0;whiteSpace=wrap;html=1;fontStyle=1" vertex="1" parent="1">
                    <mxGeometry x="420" y="900" width="90" height="28.33" as="geometry"/>
                </mxCell>
                <mxCell id="255" value="Strlen" style="rounded=0;whiteSpace=wrap;html=1;fontStyle=1" vertex="1" parent="1">
                    <mxGeometry x="220" y="940" width="90" height="28.33" as="geometry"/>
                </mxCell>
                <mxCell id="256" value="Jump" style="rounded=0;whiteSpace=wrap;html=1;fontStyle=1" vertex="1" parent="1">
                    <mxGeometry x="620" y="940" width="90" height="28.33" as="geometry"/>
                </mxCell>
                <mxCell id="257" value="Dprint" style="rounded=0;whiteSpace=wrap;html=1;fontStyle=1" vertex="1" parent="1">
                    <mxGeometry x="420" y="980" width="90" height="28.33" as="geometry"/>
                </mxCell>
                <mxCell id="258" value="Createframe" style="rounded=0;whiteSpace=wrap;html=1;fontStyle=1" vertex="1" parent="1">
                    <mxGeometry x="120" y="820" width="90" height="28.33" as="geometry"/>
                </mxCell>
                <mxCell id="259" value="Call" style="rounded=0;whiteSpace=wrap;html=1;fontStyle=1" vertex="1" parent="1">
                    <mxGeometry x="520" y="820" width="90" height="28.33" as="geometry"/>
                </mxCell>
                <mxCell id="260" value="Add" style="rounded=0;whiteSpace=wrap;html=1;fontStyle=1" vertex="1" parent="1">
                    <mxGeometry x="120" y="861" width="90" height="28.33" as="geometry"/>
                </mxCell>
                <mxCell id="261" value="Lt" style="rounded=0;whiteSpace=wrap;html=1;fontStyle=1" vertex="1" parent="1">
                    <mxGeometry x="520" y="860" width="90" height="28.33" as="geometry"/>
                </mxCell>
                <mxCell id="262" value="Or" style="rounded=0;whiteSpace=wrap;html=1;fontStyle=1" vertex="1" parent="1">
                    <mxGeometry x="120" y="900" width="90" height="28.33" as="geometry"/>
                </mxCell>
                <mxCell id="263" value="Read" style="rounded=0;whiteSpace=wrap;html=1;fontStyle=1" vertex="1" parent="1">
                    <mxGeometry x="520" y="900" width="90" height="28.33" as="geometry"/>
                </mxCell>
                <mxCell id="264" value="Getchar" style="rounded=0;whiteSpace=wrap;html=1;fontStyle=1" vertex="1" parent="1">
                    <mxGeometry x="320" y="940" width="90" height="28.33" as="geometry"/>
                </mxCell>
                <mxCell id="265" value="Jumpifeq" style="rounded=0;whiteSpace=wrap;html=1;fontStyle=1" vertex="1" parent="1">
                    <mxGeometry x="720" y="940" width="90" height="28.33" as="geometry"/>
                </mxCell>
                <mxCell id="267" value="Pushframe" style="rounded=0;whiteSpace=wrap;html=1;fontStyle=1" vertex="1" parent="1">
                    <mxGeometry x="220" y="820" width="90" height="28.33" as="geometry"/>
                </mxCell>
                <mxCell id="268" value="Return" style="rounded=0;whiteSpace=wrap;html=1;fontStyle=1" vertex="1" parent="1">
                    <mxGeometry x="620" y="820" width="90" height="28.33" as="geometry"/>
                </mxCell>
                <mxCell id="269" value="Sub" style="rounded=0;whiteSpace=wrap;html=1;fontStyle=1" vertex="1" parent="1">
                    <mxGeometry x="220" y="861" width="90" height="28.33" as="geometry"/>
                </mxCell>
                <mxCell id="270" value="Gt" style="rounded=0;whiteSpace=wrap;html=1;fontStyle=1" vertex="1" parent="1">
                    <mxGeometry x="620" y="860" width="90" height="28.33" as="geometry"/>
                </mxCell>
                <mxCell id="271" value="Not" style="rounded=0;whiteSpace=wrap;html=1;fontStyle=1" vertex="1" parent="1">
                    <mxGeometry x="220" y="900" width="90" height="28.33" as="geometry"/>
                </mxCell>
                <mxCell id="272" value="Write" style="rounded=0;whiteSpace=wrap;html=1;fontStyle=1" vertex="1" parent="1">
                    <mxGeometry x="620" y="900" width="90" height="28.33" as="geometry"/>
                </mxCell>
                <mxCell id="273" value="Setchar" style="rounded=0;whiteSpace=wrap;html=1;fontStyle=1" vertex="1" parent="1">
                    <mxGeometry x="420" y="940" width="90" height="28.33" as="geometry"/>
                </mxCell>
                <mxCell id="274" value="Jumpifneq" style="rounded=0;whiteSpace=wrap;html=1;fontStyle=1" vertex="1" parent="1">
                    <mxGeometry x="220" y="980" width="90" height="28.33" as="geometry"/>
                </mxCell>
                <mxCell id="275" value="Popframe" style="rounded=0;whiteSpace=wrap;html=1;fontStyle=1" vertex="1" parent="1">
                    <mxGeometry x="320" y="820" width="90" height="28.33" as="geometry"/>
                </mxCell>
                <mxCell id="276" value="Pushs" style="rounded=0;whiteSpace=wrap;html=1;fontStyle=1" vertex="1" parent="1">
                    <mxGeometry x="720" y="820" width="90" height="28.33" as="geometry"/>
                </mxCell>
                <mxCell id="277" value="Mul" style="rounded=0;whiteSpace=wrap;html=1;fontStyle=1" vertex="1" parent="1">
                    <mxGeometry x="320" y="861" width="90" height="28.33" as="geometry"/>
                </mxCell>
                <mxCell id="278" value="Eq" style="rounded=0;whiteSpace=wrap;html=1;fontStyle=1" vertex="1" parent="1">
                    <mxGeometry x="720" y="860" width="90" height="28.33" as="geometry"/>
                </mxCell>
                <mxCell id="279" value="Int2char" style="rounded=0;whiteSpace=wrap;html=1;fontStyle=1" vertex="1" parent="1">
                    <mxGeometry x="320" y="900" width="90" height="28.33" as="geometry"/>
                </mxCell>
                <mxCell id="280" value="Concat" style="rounded=0;whiteSpace=wrap;html=1;fontStyle=1" vertex="1" parent="1">
                    <mxGeometry x="720" y="900" width="90" height="28.33" as="geometry"/>
                </mxCell>
                <mxCell id="281" value="Type" style="rounded=0;whiteSpace=wrap;html=1;fontStyle=1" vertex="1" parent="1">
                    <mxGeometry x="520" y="940" width="90" height="28.33" as="geometry"/>
                </mxCell>
                <mxCell id="282" value="Exit" style="rounded=0;whiteSpace=wrap;html=1;fontStyle=1" vertex="1" parent="1">
                    <mxGeometry x="320" y="980" width="90" height="28.33" as="geometry"/>
                </mxCell>
                <mxCell id="289" value="Definition: any relation applies to all enclosed classes&amp;nbsp;" style="rounded=1;whiteSpace=wrap;html=1;fillColor=#00000000;strokeColor=none;fontStyle=0" vertex="1" parent="1">
                    <mxGeometry x="644" y="990" width="170" height="40" as="geometry"/>
                </mxCell>
                <mxCell id="293" style="edgeStyle=orthogonalEdgeStyle;html=1;" edge="1" parent="1" source="32">
                    <mxGeometry relative="1" as="geometry">
                        <mxPoint x="160" y="799" as="targetPoint"/>
                        <Array as="points">
                            <mxPoint x="160" y="799"/>
                        </Array>
                    </mxGeometry>
                </mxCell>
                <mxCell id="294" value="create" style="edgeLabel;html=1;align=center;verticalAlign=middle;resizable=0;points=[];" vertex="1" connectable="0" parent="293">
                    <mxGeometry x="0.0321" y="1" relative="1" as="geometry">
                        <mxPoint as="offset"/>
                    </mxGeometry>
                </mxCell>
            </root>
        </mxGraphModel>
    </diagram>
</mxfile>